<?xml version="1.0" encoding="UTF-8"?>
<!DOCTYPE svg PUBLIC "-//W3C//DTD SVG 1.1//EN" "http://www.w3.org/Graphics/SVG/1.1/DTD/svg11.dtd">
<!-- Creator: CorelDRAW Standard 2021 (64-Bit) -->
<svg xmlns="http://www.w3.org/2000/svg" xml:space="preserve" width="179.556mm" height="50mm" version="1.1" style="shape-rendering:geometricPrecision; text-rendering:geometricPrecision; image-rendering:optimizeQuality; fill-rule:evenodd; clip-rule:evenodd"
viewBox="0 0 18112.42 5043.67"
 xmlns:xlink="http://www.w3.org/1999/xlink"
 xmlns:xodm="http://www.corel.com/coreldraw/odm/2003">
 <defs>
  <style type="text/css">
   <![CDATA[
    .fil3 {fill:none}
    .fil1 {fill:#ffffff}
    .fil2 {fill:#808080}
    .fil0 {fill:#ffffff;fill-rule:nonzero}
   ]]>
  </style>
 </defs>
 <g id="Layer_x0020_1">
  <metadata id="CorelCorpID_0Corel-Layer"/>
  <path class="fil0" d="M5308.44 3823.07l0 -2391.38 392.87 0 0 2391.38 -392.87 0zm269.89 -1024.87l0 -358.72 1216.18 0 0 358.72 -1216.18 0zm0 -1007.8l0 -358.72 1274.26 0 0 358.72 -1274.26 0zm1513.39 2032.67l0 -1639.81 375.79 0 0 1639.81 -375.79 0zm187.9 -1940.43c-63.77,0 -116.72,-21.64 -158.86,-64.91 -42.13,-43.27 -63.2,-96.8 -63.2,-160.57 0,-63.76 21.06,-117.29 63.2,-160.56 42.13,-43.27 95.08,-64.91 158.86,-64.91 66.05,0 119.58,21.64 160.57,64.91 40.99,43.27 61.49,96.8 61.49,160.56 0,63.77 -20.5,117.3 -61.49,160.57 -40.99,43.27 -94.52,64.91 -160.57,64.91zm505.61 1940.43l0 -2459.71 375.78 0 0 2459.71 -375.78 0zm1451.91 34.17c-163.98,0 -311.46,-37.01 -442.41,-111.03 -130.95,-74.02 -234.58,-175.93 -310.88,-305.76 -76.29,-129.81 -114.44,-275.58 -114.44,-437.28 0,-161.71 37.58,-306.9 112.74,-435.57 75.16,-128.68 177.07,-230.61 305.76,-305.76 128.67,-75.16 271.59,-112.74 428.74,-112.74 152.59,0 287.53,35.3 404.82,105.9 117.29,70.61 209.53,167.4 276.72,290.38 67.18,122.98 100.78,263.06 100.78,420.2 0,27.34 -1.71,55.23 -5.12,83.7 -3.42,28.47 -8.54,59.78 -15.37,93.94l-1346.01 0 0 -307.46 1151.29 0 -140.07 122.98c-4.55,-100.21 -23.91,-184.48 -58.07,-252.8 -34.17,-68.33 -82.56,-120.72 -145.2,-157.15 -62.62,-36.45 -139.49,-54.66 -230.6,-54.66 -95.65,0 -178.78,20.5 -249.38,61.49 -70.61,40.99 -125.26,98.5 -163.98,172.52 -38.73,74.02 -58.08,162.27 -58.08,264.76 0,102.49 20.5,192.45 61.49,269.88 40.99,77.44 99.08,137.23 174.23,179.36 75.16,42.12 161.71,63.2 259.64,63.2 84.27,0 162.27,-14.81 234.02,-44.41 71.74,-29.61 132.66,-72.88 182.77,-129.81l239.13 242.55c-79.71,93.38 -176.51,163.98 -290.37,211.81 -113.88,47.82 -234.59,71.74 -362.13,71.74zm1011.22 -34.17l0 -2391.38 392.87 0 0 2391.38 -392.87 0zm269.89 -1024.87l0 -358.72 1216.18 0 0 358.72 -1216.18 0zm0 -1007.8l0 -358.72 1274.26 0 0 358.72 -1274.26 0zm2210.32 2066.83c-163.98,0 -311.46,-37.01 -442.41,-111.03 -130.95,-74.02 -234.58,-175.93 -310.88,-305.76 -76.29,-129.81 -114.44,-275.58 -114.44,-437.28 0,-161.71 37.58,-306.9 112.74,-435.57 75.16,-128.68 177.07,-230.61 305.76,-305.76 128.67,-75.16 271.59,-112.74 428.74,-112.74 152.59,0 287.53,35.3 404.82,105.9 117.29,70.61 209.53,167.4 276.72,290.38 67.18,122.98 100.78,263.06 100.78,420.2 0,27.34 -1.71,55.23 -5.12,83.7 -3.42,28.47 -8.54,59.78 -15.37,93.94l-1346.01 0 0 -307.46 1151.29 0 -140.07 122.98c-4.55,-100.21 -23.91,-184.48 -58.07,-252.8 -34.17,-68.33 -82.56,-120.72 -145.2,-157.15 -62.62,-36.45 -139.49,-54.66 -230.6,-54.66 -95.65,0 -178.78,20.5 -249.38,61.49 -70.61,40.99 -125.26,98.5 -163.98,172.52 -38.73,74.02 -58.08,162.27 -58.08,264.76 0,102.49 20.5,192.45 61.49,269.88 40.99,77.44 99.08,137.23 174.23,179.36 75.16,42.12 161.71,63.2 259.64,63.2 84.27,0 162.27,-14.81 234.02,-44.41 71.74,-29.61 132.66,-72.88 182.77,-129.81l239.13 242.55c-79.71,93.38 -176.51,163.98 -290.37,211.81 -113.88,47.82 -234.59,71.74 -362.13,71.74zm1721.8 0c-163.98,0 -311.46,-37.01 -442.41,-111.03 -130.95,-74.02 -234.58,-175.93 -310.88,-305.76 -76.29,-129.81 -114.44,-275.58 -114.44,-437.28 0,-161.71 37.58,-306.9 112.74,-435.57 75.16,-128.68 177.07,-230.61 305.76,-305.76 128.67,-75.16 271.59,-112.74 428.74,-112.74 152.59,0 287.53,35.3 404.82,105.9 117.29,70.61 209.53,167.4 276.72,290.38 67.18,122.98 100.78,263.06 100.78,420.2 0,27.34 -1.71,55.23 -5.12,83.7 -3.42,28.47 -8.54,59.78 -15.37,93.94l-1346.01 0 0 -307.46 1151.29 0 -140.07 122.98c-4.55,-100.21 -23.91,-184.48 -58.07,-252.8 -34.17,-68.33 -82.56,-120.72 -145.2,-157.15 -62.62,-36.45 -139.49,-54.66 -230.6,-54.66 -95.65,0 -178.78,20.5 -249.38,61.49 -70.61,40.99 -125.26,98.5 -163.98,172.52 -38.73,74.02 -58.08,162.27 -58.08,264.76 0,102.49 20.5,192.45 61.49,269.88 40.99,77.44 99.08,137.23 174.23,179.36 75.16,42.12 161.71,63.2 259.64,63.2 84.27,0 162.27,-14.81 234.02,-44.41 71.74,-29.61 132.66,-72.88 182.77,-129.81l239.13 242.55c-79.71,93.38 -176.51,163.98 -290.37,211.81 -113.88,47.82 -234.59,71.74 -362.13,71.74zm1646.64 0c-148.04,0 -281.28,-37.01 -399.7,-111.03 -118.44,-74.02 -212.94,-175.93 -283.56,-305.76 -70.6,-129.81 -105.9,-274.44 -105.9,-433.87 0,-161.7 34.73,-306.89 104.19,-435.57 69.46,-128.67 163.98,-231.16 283.56,-307.46 119.57,-76.3 253.36,-114.44 401.41,-114.44 125.26,0 236.3,26.76 333.08,80.28 96.8,53.52 173.66,126.98 230.6,220.35 56.94,93.38 85.41,199.29 85.41,317.72l0 471.44c0,118.43 -27.9,224.33 -83.69,317.71 -55.8,93.38 -132.67,166.82 -230.61,220.35 -97.93,53.52 -209.52,80.29 -334.79,80.29zm61.49 -355.3c93.38,0 174.8,-21.06 244.26,-63.2 69.46,-42.13 123.55,-100.78 162.27,-175.94 38.72,-75.15 58.07,-161.7 58.07,-259.63 0,-100.22 -19.36,-187.33 -58.07,-261.34 -38.73,-74.02 -92.81,-132.1 -162.27,-174.23 -69.46,-42.13 -149.75,-63.21 -240.85,-63.21 -93.38,0 -174.8,21.07 -244.26,63.21 -69.46,42.12 -124.12,100.77 -163.98,175.93 -39.86,75.16 -59.79,161.7 -59.79,259.64 0,97.93 19.36,184.48 58.08,259.63 38.72,75.16 93.37,133.81 163.98,175.94 70.6,42.13 151.45,63.2 242.55,63.2zm816.49 321.13l-375.79 0 0 -440.7 64.91 -399.7 -64.91 -396.29 0 -1223.02 375.79 0 0 2459.71z"/>
  <path class="fil1" d="M4503.24 3051.42l-1156.64 956.49c-123.16,101.84 -307.29,84.42 -409.14,-38.74l-301.61 -364.72 603.4 -499.03c123.51,-102.13 140.98,-286.75 38.85,-410.25l-931.68 -1126.56 552.6 -456.99c123.16,-101.85 307.29,-84.41 409.14,38.76l1233.81 1491.9c101.86,123.16 84.41,307.31 -38.74,409.14z"/>
  <path class="fil2" d="M2873.38 3063.61l-968.1 800.69c-123.13,101.83 -307.29,84.4 -409.14,-38.74l-376.15 -454.74 411.75 -340.52c123.51,-102.14 140.97,-286.75 38.85,-410.26l-591.04 -714.68 555.67 -459.59c123.16,-101.86 307.28,-84.37 409.14,38.76l967.75 1169.93c101.86,123.13 84.38,307.32 -38.74,409.14z"/>
  <polygon class="fil3" points="-0,0 18112.42,0 18112.42,5043.67 -0,5043.67 "/>
 </g>
</svg>
